<svg width="37" height="47" viewBox="0 0 37 47" fill="none" xmlns="http://www.w3.org/2000/svg">
<path d="M28.4735 47C25.8897 47 23.7709 46.2604 22.1173 44.7811C20.4637 43.3019 19.6369 41.2175 19.6369 38.5279C19.6369 38.0908 19.6541 37.637 19.6885 37.1663C19.723 36.7293 19.7747 36.2754 19.8436 35.8047C17.0531 35.9728 14.452 35.6534 12.0405 34.8466C9.62896 34.0397 7.51024 32.8462 5.68436 31.2661C3.89292 29.6524 2.49767 27.7192 1.4986 25.4667C0.499534 23.1806 0 20.676 0 17.9528C0 15.465 0.430633 13.1452 1.2919 10.9936C2.15317 8.8083 3.39339 6.89199 5.01257 5.24464C6.6662 3.59728 8.61266 2.31974 10.852 1.41202C13.1257 0.470673 15.675 0 18.5 0C21.2905 0 23.8226 0.453863 26.0964 1.36159C28.3701 2.26931 30.3166 3.54685 31.9358 5.19421C33.5549 6.80794 34.7952 8.69063 35.6564 10.8423C36.5521 12.9603 37 15.2296 37 17.6502V37.9732C37 40.6964 36.2421 42.8816 34.7263 44.529C33.2104 46.1763 31.1262 47 28.4735 47ZM18.5 31.6695C19.0512 31.6695 19.568 31.6527 20.0503 31.6191C20.5326 31.5519 21.0493 31.451 21.6006 31.3165C22.3585 29.6019 23.5298 27.8537 25.1145 26.0719C26.7337 24.2901 29.0419 22.6259 32.0391 21.0794V17.6502C32.0391 15.0951 31.4534 12.809 30.2821 10.7918C29.1108 8.77468 27.4916 7.17775 25.4246 6.00107C23.392 4.82439 21.0838 4.23605 18.5 4.23605C15.8817 4.23605 13.5563 4.8412 11.5237 6.0515C9.49115 7.2618 7.8892 8.89235 6.71788 10.9431C5.54656 12.9939 4.96089 15.3305 4.96089 17.9528C4.96089 20.5415 5.54656 22.878 6.71788 24.9624C7.8892 27.0132 9.49115 28.6438 11.5237 29.8541C13.5563 31.0644 15.8817 31.6695 18.5 31.6695ZM28.1634 42.6631C29.2658 42.6631 30.1788 42.2597 30.9022 41.4528C31.6602 40.6795 32.0391 39.5533 32.0391 38.074V26.0719C30.2477 27.1813 28.8352 28.3076 27.8017 29.4506C26.7682 30.5937 26.0102 31.7031 25.5279 32.779C25.0456 33.8548 24.7183 34.8466 24.5461 35.7543C24.4083 36.662 24.3394 37.4185 24.3394 38.0236C24.3394 39.5029 24.7183 40.6459 25.4763 41.4528C26.2686 42.2597 27.1643 42.6631 28.1634 42.6631Z" fill="#E83C38"/>
</svg>
