<svg width="52" height="68" viewBox="0 0 52 68" fill="none" xmlns="http://www.w3.org/2000/svg">
<path d="M39.696 67.84C36.096 67.84 33.144 66.784 30.84 64.672C28.536 62.56 27.384 59.584 27.384 55.744C27.384 55.12 27.408 54.472 27.456 53.8C27.504 53.176 27.576 52.528 27.672 51.856C23.784 52.096 20.16 51.64 16.8 50.488C13.44 49.336 10.488 47.632 7.94405 45.376C5.44805 43.072 3.50405 40.312 2.11205 37.096C0.720048 33.832 0.0240479 30.256 0.0240479 26.368C0.0240479 22.816 0.624048 19.504 1.82405 16.432C3.02405 13.312 4.75205 10.576 7.00805 8.224C9.31205 5.872 12.024 4.048 15.144 2.752C18.312 1.408 21.864 0.736 25.8 0.736C29.688 0.736 33.216 1.384 36.384 2.68C39.552 3.976 42.264 5.8 44.52 8.152C46.776 10.456 48.504 13.144 49.704 16.216C50.952 19.24 51.576 22.48 51.576 25.936V54.952C51.576 58.84 50.52 61.96 48.408 64.312C46.296 66.664 43.392 67.84 39.696 67.84ZM25.8 45.952C26.568 45.952 27.288 45.928 27.96 45.88C28.632 45.784 29.352 45.64 30.12 45.448C31.176 43 32.808 40.504 35.016 37.96C37.272 35.416 40.488 33.04 44.664 30.832V25.936C44.664 22.288 43.848 19.024 42.216 16.144C40.584 13.264 38.328 10.984 35.448 9.304C32.616 7.624 29.4 6.784 25.8 6.784C22.152 6.784 18.912 7.648 16.08 9.376C13.248 11.104 11.016 13.432 9.38405 16.36C7.75205 19.288 6.93605 22.624 6.93605 26.368C6.93605 30.064 7.75205 33.4 9.38405 36.376C11.016 39.304 13.248 41.632 16.08 43.36C18.912 45.088 22.152 45.952 25.8 45.952ZM39.264 61.648C40.8 61.648 42.072 61.072 43.08 59.92C44.136 58.816 44.664 57.208 44.664 55.096V37.96C42.168 39.544 40.2 41.152 38.76 42.784C37.32 44.416 36.264 46 35.592 47.536C34.92 49.072 34.464 50.488 34.224 51.784C34.032 53.08 33.936 54.16 33.936 55.024C33.936 57.136 34.464 58.768 35.52 59.92C36.624 61.072 37.872 61.648 39.264 61.648Z" fill="#E83C38"/>
</svg>
